HIERARCHY
ROOT Hips
{
	OFFSET -0.001795 -0.223333 0.028219
	CHANNELS 6 Xposition Yposition Zposition Zrotation Yrotation Xrotation 
	JOINT LeftUpLeg
	{
		OFFSET 0.069520 -0.091406 -0.006815
		CHANNELS 3 Zrotation Yrotation Xrotation
		JOINT LeftLeg
		{
			OFFSET 0.034277 -0.375199 -0.004496
			CHANNELS 3 Zrotation Yrotation Xrotation
			JOINT LeftFoot
			{
				OFFSET -0.013596 -0.397961 -0.043693
				CHANNELS 3 Zrotation Yrotation Xrotation
				JOINT LeftToe
				{
					OFFSET 0.026358 -0.055791 0.119288
					CHANNELS 3 Zrotation Yrotation Xrotation
					End Site
					{
						OFFSET 0.000000 0.000000 0.000000
					}
				}
			}
		}
	}
	JOINT RightUpLeg
	{
		OFFSET -0.067670 -0.090522 -0.004320
		CHANNELS 3 Zrotation Yrotation Xrotation
		JOINT RightLeg
		{
			OFFSET -0.038290 -0.382569 -0.008850
			CHANNELS 3 Zrotation Yrotation Xrotation
			JOINT RightFoot
			{
				OFFSET 0.015774 -0.398415 -0.042312
				CHANNELS 3 Zrotation Yrotation Xrotation
				JOINT RightToe
				{
					OFFSET -0.025372 -0.048144 0.123348
					CHANNELS 3 Zrotation Yrotation Xrotation
					End Site
					{
						OFFSET 0.000000 0.000000 0.000000
					}
				}
			}
		}
	}
	JOINT Spine
	{
		OFFSET -0.002533 0.108963 -0.026696
		CHANNELS 3 Zrotation Yrotation Xrotation
		JOINT Spine1
		{
			OFFSET 0.005487 0.135180 0.001092
			CHANNELS 3 Zrotation Yrotation Xrotation
			JOINT Spine2
			{
				OFFSET 0.001457 0.052922 0.025425
				CHANNELS 3 Zrotation Yrotation Xrotation
				JOINT Neck
				{
					OFFSET -0.002778 0.213870 -0.042857
					CHANNELS 3 Zrotation Yrotation Xrotation
					JOINT Head
					{
						OFFSET 0.005152 0.064970 0.051349
						CHANNELS 3 Zrotation Yrotation Xrotation
						End Site
						{
							OFFSET 0.000000 0.000000 0.000000
						}
					}
				}
				JOINT LeftShoulder
				{
					OFFSET 0.078845 0.121749 -0.034090
					CHANNELS 3 Zrotation Yrotation Xrotation
					JOINT LeftArm
					{
						OFFSET 0.090977 0.030469 -0.008868
						CHANNELS 3 Zrotation Yrotation Xrotation
						JOINT LeftForeArm
						{
							OFFSET 0.259612 -0.012772 -0.027456
							CHANNELS 3 Zrotation Yrotation Xrotation
							JOINT LeftHand
							{
								OFFSET 0.249234 0.008986 -0.001171
								CHANNELS 3 Zrotation Yrotation Xrotation
								End Site
								{
									OFFSET 0.000000 0.000000 0.000000
								}
							}
						}
					}
				}
				JOINT RightShoulder
				{
					OFFSET -0.081759 0.118833 -0.038615
					CHANNELS 3 Zrotation Yrotation Xrotation
					JOINT RightArm
					{
						OFFSET -0.096012 0.032551 -0.009143
						CHANNELS 3 Zrotation Yrotation Xrotation
						JOINT RightForeArm
						{
							OFFSET -0.253742 -0.013329 -0.021401
							CHANNELS 3 Zrotation Yrotation Xrotation
							JOINT RightHand
							{
								OFFSET -0.255298 0.007772 -0.005559
								CHANNELS 3 Zrotation Yrotation Xrotation
								End Site
								{
									OFFSET 0.000000 0.000000 0.000000
								}
							}
						}
					}
				}
			}
		}
	}
}
MOTION
Frames: 7
Frame Time: 0.050000
0.000000 0.818833 0.000000 2.942263 -5.465990 17.767546 26.178108 5.767764 -38.493928 -12.476395 3.747109 22.544145 11.509093 22.338618 14.673246 0.000000 0.000000 0.000000 -28.820352 -3.914901 -43.638567 18.067377 -5.819205 33.100242 -9.983448 -26.041148 -1.387349 0.000000 0.000000 0.000000 8.082963 -4.501928 41.988330 -6.253529 1.697992 -30.442953 -3.216742 5.794585 26.775370 12.916441 -1.212154 -47.898019 0.000000 0.000000 0.000000 -34.660887 -21.869687 12.747513 -35.420528 -22.767680 0.396102 -6.076826 -37.596235 3.863450 0.000000 0.000000 0.000000 27.389931 10.426987 6.473445 50.571375 26.173933 3.415048 8.727487 45.833800 6.633419 0.000000 0.000000 0.000000 
-0.013667 0.820024 -0.006385 2.795483 -6.264253 18.822801 27.435101 6.392183 -38.601208 -10.932808 3.082440 20.529215 8.893669 18.341134 14.180309 0.000000 0.000000 0.000000 -29.044866 -4.160567 -46.882969 20.001165 -6.897867 35.263316 -9.037802 -23.783134 0.840278 0.000000 0.000000 0.000000 8.282345 -4.633514 43.957569 -6.983724 1.822086 -29.213632 -2.507049 7.493251 23.593687 8.859742 0.826010 -51.321719 0.000000 0.000000 0.000000 -32.678154 -20.684902 10.612930 -35.889476 -23.528892 1.149699 -8.914698 -40.049267 5.096044 0.000000 0.000000 0.000000 26.746305 8.047898 5.312782 50.453953 25.175703 3.324776 13.736808 48.185543 9.405060 0.000000 0.000000 0.000000 
-0.023358 0.822253 -0.012262 3.531534 -5.479169 17.761105 26.215504 5.753013 -38.547066 -10.660658 2.985660 21.130691 8.826298 18.352022 12.965254 0.000000 0.000000 0.000000 -27.478585 -3.834033 -46.173705 18.479745 -6.440106 36.311311 -9.303008 -24.646066 -3.738966 0.000000 0.000000 0.000000 8.893014 -5.144546 44.805690 -7.678527 1.960644 -28.884861 -3.696188 5.307688 23.315848 11.302965 -0.128743 -50.576792 0.000000 0.000000 0.000000 -32.175698 -20.100924 10.963217 -36.831209 -24.558837 1.297464 -7.526610 -40.013528 4.684857 0.000000 0.000000 0.000000 27.946329 9.667530 5.758378 49.394672 24.686270 3.070512 16.739439 47.776128 10.342339 0.000000 0.000000 0.000000 
-0.028923 0.822823 -0.017591 3.517830 -5.936743 18.629666 27.822035 6.569292 -39.443735 -11.448578 3.132588 19.753744 8.749986 18.170351 16.420172 0.000000 0.000000 0.000000 -28.126396 -4.218650 -48.557207 20.066218 -7.277116 37.015463 -9.361152 -24.812682 -1.819694 0.000000 0.000000 0.000000 8.318253 -4.938829 46.287964 -7.621400 1.921829 -29.790556 -3.619508 5.501501 23.050937 9.611610 0.396303 -50.207388 0.000000 0.000000 0.000000 -31.392979 -19.864712 10.668813 -38.124128 -24.849845 1.574070 -6.419211 -41.187263 4.479188 0.000000 0.000000 0.000000 24.838595 9.280818 5.346939 51.231957 25.361599 3.810062 18.867617 50.414680 12.164775 0.000000 0.000000 0.000000 
-0.028964 0.822982 -0.022494 3.367188 -5.312394 18.643776 27.138347 6.445381 -40.804804 -10.919253 3.248808 23.044468 8.935660 18.565133 15.247374 0.000000 0.000000 0.000000 -27.364906 -4.330948 -49.968121 20.722954 -7.710556 37.227791 -9.948481 -26.074830 -0.857277 0.000000 0.000000 0.000000 8.523639 -5.326376 47.714203 -7.339187 1.849284 -30.328505 -3.954015 5.179104 23.094467 9.935605 0.363288 -50.643220 0.000000 0.000000 0.000000 -30.893962 -20.178004 10.860757 -37.698293 -24.710387 1.479467 -6.480929 -44.162414 4.884116 0.000000 0.000000 0.000000 25.080260 9.606435 5.589744 50.249798 24.540757 3.278038 23.416538 53.454940 15.467147 0.000000 0.000000 0.000000 
-0.022196 0.821426 -0.026686 2.670365 -6.059444 19.066581 27.482598 6.939741 -41.460058 -12.394021 4.069930 25.077926 9.357015 19.199865 12.184793 0.000000 0.000000 0.000000 -27.194990 -4.107322 -50.932900 20.917611 -7.735307 37.435441 -9.538993 -25.096058 -0.100298 0.000000 0.000000 0.000000 7.669391 -4.858655 49.443554 -6.849762 1.730921 -31.867797 -3.190601 5.573403 23.605595 10.490836 0.451868 -52.498506 0.000000 0.000000 0.000000 -31.179534 -20.670459 11.246582 -36.424558 -24.987803 1.391013 -6.633215 -44.610398 5.016718 0.000000 0.000000 0.000000 23.734455 9.637095 5.602403 50.756884 25.099496 3.590436 26.861535 55.040922 18.036640 0.000000 0.000000 0.000000 
-0.009255 0.818696 -0.030020 1.972200 -5.932302 18.968873 27.027787 7.156334 -43.189152 -13.508774 4.865938 28.046695 9.711667 19.844715 10.785349 0.000000 0.000000 0.000000 -26.647758 -4.004726 -51.684705 20.379591 -7.436378 37.105561 -9.935853 -25.823431 1.666389 0.000000 0.000000 0.000000 7.724662 -4.999206 50.461962 -6.810620 1.719965 -31.710126 -2.935626 4.856788 23.301788 11.543806 0.092493 -52.152318 0.000000 0.000000 0.000000 -31.173654 -20.801156 11.675724 -35.741906 -25.770904 1.455937 -6.481620 -45.727251 5.169241 0.000000 0.000000 0.000000 23.225691 10.148846 5.659137 50.187050 25.782625 3.855207 29.519532 56.352744 19.982146 0.000000 0.000000 0.000000 
